<svg id="svg" version="1.1" xmlns="http://www.w3.org/2000/svg" xmlns:xlink="http://www.w3.org/1999/xlink" width="400" height="400" viewBox="0, 0, 400,400"><g id="svgg"><path id="path0" d="M191.406 65.462 C 190.654 65.550,188.369 65.812,186.328 66.044 C 160.338 69.004,135.126 85.249,120.450 108.488 C 105.096 132.801,102.301 166.566,113.452 193.022 C 113.956 194.218,106.307 195.035,103.476 194.087 C 101.945 193.574,100.391 192.287,100.391 191.533 C 100.391 191.249,100.196 191.016,99.957 191.016 C 99.152 191.016,99.702 196.678,100.628 197.929 C 106.457 205.797,121.177 200.139,160.131 175.057 L 171.628 167.654 173.545 168.945 C 174.599 169.655,176.589 170.559,177.965 170.953 C 181.016 171.827,181.099 171.466,177.022 175.045 C 147.247 201.178,121.277 216.636,109.082 215.485 C 106.396 215.231,106.486 215.405,109.863 217.005 C 115.385 219.621,120.552 220.416,126.143 219.509 L 128.653 219.101 133.369 223.790 C 179.669 269.815,256.440 255.018,283.439 194.866 C 291.854 176.118,293.488 151.163,287.617 131.055 C 286.864 128.477,286.222 126.127,286.191 125.833 C 286.159 125.539,287.979 124.155,290.234 122.757 C 298.687 117.520,320.609 102.754,323.242 100.525 C 334.345 91.125,334.272 78.632,323.095 75.562 C 321.887 75.230,319.404 74.493,317.578 73.924 C 314.792 73.056,313.535 72.890,309.766 72.893 C 300.894 72.900,297.620 74.421,280.664 86.410 C 277.441 88.689,273.063 91.607,270.935 92.895 L 267.064 95.237 262.406 91.075 C 246.755 77.096,230.234 69.116,210.938 66.216 C 206.996 65.624,194.239 65.131,191.406 65.462 M313.672 77.229 C 307.526 79.480,304.360 82.502,306.115 84.442 C 307.112 85.544,308.049 85.325,312.085 83.049 C 321.365 77.815,326.963 78.712,326.949 85.430 C 326.935 92.339,323.744 95.237,295.313 114.164 C 284.033 121.672,274.541 128.044,274.219 128.324 C 273.896 128.604,271.270 130.317,268.382 132.132 L 263.132 135.431 258.113 149.837 C 251.943 167.545,252.208 167.056,247.525 169.335 C 245.536 170.302,243.698 171.094,243.439 171.094 C 242.815 171.094,242.826 170.792,243.944 157.227 C 244.475 150.781,244.912 145.023,244.916 144.431 L 244.922 143.353 240.147 145.747 C 221.952 154.868,198.351 165.284,192.773 166.656 C 185.345 168.482,173.047 166.751,173.047 163.880 C 173.047 163.209,174.862 161.610,177.807 159.685 L 180.419 157.977 174.606 153.591 C 168.155 148.722,160.547 142.555,160.547 142.194 C 160.547 141.793,168.942 137.109,169.660 137.109 C 170.035 137.109,173.015 138.024,176.284 139.141 C 179.552 140.258,185.303 142.076,189.063 143.180 C 194.477 144.770,195.887 145.323,195.844 145.836 C 195.803 146.323,196.119 146.484,197.116 146.484 C 198.503 146.484,222.541 130.947,221.946 130.434 C 221.800 130.307,214.385 126.811,205.469 122.664 C 181.877 111.691,167.822 105.044,167.429 104.675 C 167.100 104.365,174.689 99.085,176.416 98.422 C 176.935 98.223,178.551 98.391,180.713 98.869 C 198.402 102.776,248.068 112.297,249.208 111.999 C 250.133 111.757,282.075 90.700,288.656 85.994 C 297.870 79.405,303.811 76.987,310.742 77.005 C 312.676 77.011,313.994 77.111,313.672 77.229 M280.315 138.965 C 290.771 161.756,286.040 188.318,267.238 212.384 C 264.696 215.637,264.712 215.629,264.034 213.994 C 262.597 210.524,256.113 203.086,251.487 199.600 C 245.717 195.252,241.183 193.538,232.375 192.377 C 223.223 191.170,222.815 190.710,221.657 180.327 C 221.083 175.175,220.015 170.855,218.366 167.008 L 217.643 165.321 223.177 162.687 C 231.850 158.559,235.548 156.901,235.703 157.070 C 235.782 157.156,236.055 160.479,236.310 164.453 C 237.237 178.864,237.785 179.334,247.870 174.364 C 254.283 171.204,257.243 168.692,258.404 165.430 C 258.786 164.355,260.460 160.049,262.124 155.859 C 263.788 151.670,265.617 146.741,266.189 144.905 L 267.229 141.568 272.775 138.775 C 275.825 137.239,278.457 135.972,278.623 135.960 C 278.790 135.948,279.551 137.300,280.315 138.965 M139.648 155.477 C 147.919 156.402,157.786 159.116,164.822 162.404 L 168.121 163.945 165.017 166.240 C 152.018 175.855,129.094 187.721,118.269 190.438 C 116.217 190.953,111.856 174.720,111.101 163.756 L 110.830 159.833 112.739 158.868 C 118.553 155.930,130.373 154.441,139.648 155.477 M191.386 176.045 C 195.454 177.162,198.877 179.201,206.053 184.784 C 207.986 186.288,211.783 188.661,214.492 190.059 C 223.128 194.515,224.306 196.114,224.263 203.314 C 224.165 219.866,212.761 237.806,197.800 244.947 L 195.247 246.165 190.495 245.711 C 173.783 244.116,158.855 238.295,145.508 228.169 C 143.085 226.330,135.156 218.827,135.156 218.372 C 135.156 218.230,137.397 216.635,140.137 214.826 C 153.132 206.245,165.330 196.060,181.828 180.014 C 187.474 174.523,186.823 174.793,191.386 176.045 M146.361 260.179 C 140.196 261.227,139.006 269.837,144.630 272.706 C 148.139 274.497,153.164 272.965,154.534 269.688 C 156.773 264.327,152.335 259.163,146.361 260.179 M275.391 261.204 C 269.724 261.411,270.313 257.594,270.313 294.126 C 270.313 326.776,270.353 327.574,272.012 327.909 C 276.181 328.751,282.504 328.322,282.947 327.167 C 283.499 325.729,283.362 262.491,282.805 261.939 C 282.083 261.222,280.143 261.030,275.391 261.204 M82.227 266.769 C 76.114 267.060,76.563 266.531,76.563 273.461 L 76.563 279.297 72.899 279.297 C 68.158 279.297,68.263 279.154,68.601 285.133 C 68.918 290.740,68.817 290.625,73.418 290.625 L 76.575 290.625 76.508 303.809 C 76.444 316.456,76.475 317.080,77.282 319.159 C 79.920 325.963,84.524 328.516,94.154 328.516 C 101.506 328.516,101.172 328.773,101.172 323.111 C 101.172 317.476,101.255 317.578,96.699 317.578 C 89.272 317.576,89.064 317.154,89.063 302.051 L 89.063 290.625 94.311 290.625 C 97.197 290.625,100.035 290.444,100.617 290.222 L 101.676 289.820 101.457 285.066 C 101.180 279.038,101.494 279.297,94.457 279.297 L 89.063 279.297 89.063 273.460 C 89.063 267.633,88.602 265.977,87.120 266.476 C 87.007 266.514,84.805 266.646,82.227 266.769 M231.742 278.347 C 211.334 282.819,204.010 307.302,218.719 321.879 C 231.274 334.322,253.620 330.833,261.276 315.234 C 271.107 295.203,253.750 273.524,231.742 278.347 M310.927 278.121 C 293.413 280.915,283.945 299.317,291.758 315.380 C 301.916 336.263,335.110 332.699,340.407 310.156 C 344.767 291.604,329.616 275.141,310.927 278.121 M129.403 278.727 C 126.864 279.410,124.574 280.806,122.168 283.135 L 120.313 284.932 120.313 282.722 C 120.313 279.534,119.852 279.297,113.663 279.297 C 110.363 279.297,108.596 279.451,108.281 279.766 C 107.927 280.120,107.813 285.944,107.813 303.585 L 107.813 326.935 108.771 327.563 C 110.019 328.381,118.642 328.247,119.668 327.394 C 120.241 326.917,120.313 325.547,120.315 315.089 C 120.319 299.857,120.703 297.564,123.848 293.983 C 125.845 291.707,128.150 290.840,132.227 290.829 L 135.742 290.820 136.023 285.156 C 136.388 277.785,135.631 277.049,129.403 278.727 M142.009 279.424 C 141.267 279.974,141.239 280.705,141.087 303.056 L 140.930 326.121 141.931 327.123 C 143.269 328.461,152.106 328.685,153.260 327.411 C 154.249 326.318,154.251 280.460,153.262 279.638 C 152.293 278.832,143.045 278.656,142.009 279.424 M159.405 279.456 C 158.591 280.437,158.815 281.040,167.979 302.539 C 172.741 313.711,176.984 323.773,177.408 324.899 C 178.559 327.957,178.964 328.125,185.190 328.125 C 191.378 328.125,191.979 327.869,193.164 324.726 C 193.553 323.695,197.774 313.711,202.544 302.539 C 212.404 279.448,211.900 280.757,211.336 279.702 C 210.890 278.868,203.279 278.504,200.000 279.160 C 198.441 279.472,198.796 278.700,191.175 298.333 C 187.986 306.547,185.269 313.139,185.136 312.981 C 185.004 312.824,184.508 311.641,184.035 310.352 C 180.549 300.872,172.428 280.544,171.917 280.019 C 170.963 279.039,160.154 278.553,159.405 279.456 M243.239 290.601 C 251.870 294.354,253.919 307.240,246.925 313.783 C 235.666 324.314,219.290 312.420,224.989 297.852 C 227.678 290.978,236.263 287.568,243.239 290.601 M320.332 290.505 C 333.480 296.335,329.335 317.383,315.039 317.383 C 299.468 317.383,296.745 293.696,311.868 289.801 C 313.913 289.274,318.398 289.648,320.332 290.505 " stroke="none" fill="#11415e" fill-rule="evenodd"></path><path id="path1" d="M272.775 138.777 L 267.229 141.568 266.192 144.905 C 265.621 146.741,263.961 151.230,262.503 154.883 C 261.045 158.535,259.370 162.842,258.780 164.453 C 256.389 170.981,241.750 179.677,238.546 176.472 C 237.194 175.120,235.938 166.306,235.938 158.172 C 235.938 156.626,236.302 156.511,226.419 161.173 L 217.640 165.314 218.365 167.004 C 220.015 170.855,221.082 175.174,221.657 180.327 C 222.815 190.710,223.223 191.170,232.375 192.377 C 241.183 193.538,245.717 195.252,251.487 199.600 C 256.113 203.086,262.597 210.524,264.034 213.994 C 264.712 215.629,264.696 215.637,267.238 212.384 C 285.636 188.835,290.600 162.803,280.949 140.480 C 278.694 135.264,279.443 135.420,272.775 138.777 M127.734 155.333 C 121.912 155.888,115.772 157.329,112.788 158.841 L 110.830 159.833 111.101 163.756 C 111.695 172.383,116.113 190.625,117.609 190.625 C 119.675 190.625,136.343 183.533,143.919 179.430 C 151.963 175.074,166.900 165.476,167.733 164.128 C 167.842 163.951,166.138 163.007,163.945 162.031 C 152.486 156.926,138.388 154.318,127.734 155.333 M181.828 180.014 C 165.309 196.081,152.162 207.033,139.551 215.236 C 137.134 216.808,135.156 218.214,135.156 218.361 C 135.156 218.824,143.055 226.308,145.508 228.169 C 158.855 238.295,173.783 244.116,190.495 245.711 L 195.247 246.165 197.800 244.947 C 212.774 237.800,224.170 219.863,224.248 203.318 C 224.283 196.080,223.134 194.518,214.492 190.059 C 211.783 188.661,207.986 186.288,206.053 184.784 C 198.877 179.201,195.454 177.162,191.386 176.045 C 186.823 174.793,187.474 174.523,181.828 180.014 " stroke="none" fill="#45a7df" fill-rule="evenodd"></path><path id="path2" d="M106.367 157.422 C 106.367 158.604,106.440 159.087,106.530 158.496 C 106.619 157.905,106.619 156.938,106.530 156.348 C 106.440 155.757,106.367 156.240,106.367 157.422 M291.106 160.156 C 291.106 160.908,291.187 161.216,291.285 160.840 C 291.383 160.464,291.383 159.849,291.285 159.473 C 291.187 159.097,291.106 159.404,291.106 160.156 M109.082 215.504 C 109.458 215.602,110.073 215.602,110.449 215.504 C 110.825 215.405,110.518 215.325,109.766 215.325 C 109.014 215.325,108.706 215.405,109.082 215.504 M195.416 251.062 C 196.009 251.151,196.888 251.149,197.369 251.056 C 197.849 250.964,197.363 250.890,196.289 250.893 C 195.215 250.896,194.822 250.972,195.416 251.062 M199.902 251.057 C 200.386 251.150,201.177 251.150,201.660 251.057 C 202.144 250.964,201.748 250.888,200.781 250.888 C 199.814 250.888,199.419 250.964,199.902 251.057 M82.715 266.682 C 83.198 266.775,83.989 266.775,84.473 266.682 C 84.956 266.589,84.561 266.513,83.594 266.513 C 82.627 266.513,82.231 266.589,82.715 266.682 M147.363 273.707 C 147.739 273.805,148.354 273.805,148.730 273.707 C 149.106 273.609,148.799 273.528,148.047 273.528 C 147.295 273.528,146.987 273.609,147.363 273.707 M71.397 279.193 C 72.316 279.275,73.722 279.274,74.522 279.190 C 75.322 279.106,74.570 279.039,72.852 279.040 C 71.133 279.042,70.478 279.110,71.397 279.193 M154.089 303.711 C 154.089 316.172,154.139 321.326,154.199 315.165 C 154.259 309.003,154.259 298.808,154.199 292.508 C 154.139 286.209,154.089 291.250,154.089 303.711 M136.076 286.914 C 136.075 288.848,136.141 289.688,136.223 288.781 C 136.305 287.875,136.306 286.293,136.225 285.266 C 136.144 284.239,136.077 284.980,136.076 286.914 M341.133 303.906 C 341.133 305.088,341.206 305.571,341.295 304.980 C 341.385 304.390,341.385 303.423,341.295 302.832 C 341.206 302.241,341.133 302.725,341.133 303.906 M120.411 304.883 C 120.415 305.742,120.495 306.048,120.589 305.562 C 120.682 305.076,120.679 304.373,120.581 303.999 C 120.483 303.626,120.407 304.023,120.411 304.883 M181.152 328.401 C 181.636 328.494,182.427 328.494,182.910 328.401 C 183.394 328.308,182.998 328.231,182.031 328.231 C 181.064 328.231,180.669 328.308,181.152 328.401 M93.853 328.796 C 94.447 328.886,95.326 328.883,95.806 328.791 C 96.287 328.698,95.801 328.624,94.727 328.627 C 93.652 328.630,93.259 328.706,93.853 328.796 M236.628 329.580 C 237.330 329.667,238.385 329.665,238.972 329.576 C 239.559 329.487,238.984 329.416,237.695 329.418 C 236.406 329.420,235.926 329.493,236.628 329.580 " stroke="none" fill="#9babb1" fill-rule="evenodd"></path><path id="path3" d="M321.264 95.801 L 320.117 97.070 321.387 95.923 C 322.085 95.292,322.656 94.721,322.656 94.653 C 322.656 94.352,322.334 94.617,321.264 95.801 M291.141 156.641 C 291.141 158.037,291.212 158.608,291.298 157.910 C 291.385 157.212,291.385 156.069,291.298 155.371 C 291.212 154.673,291.141 155.244,291.141 156.641 M131.641 222.388 C 131.641 222.455,132.212 223.026,132.910 223.657 L 134.180 224.805 133.032 223.535 C 131.963 222.352,131.641 222.086,131.641 222.388 M276.860 261.214 C 277.346 261.307,278.049 261.304,278.423 261.206 C 278.796 261.108,278.398 261.032,277.539 261.036 C 276.680 261.040,276.374 261.120,276.860 261.214 M76.326 274.023 C 76.327 277.031,76.388 278.210,76.462 276.643 C 76.537 275.076,76.536 272.615,76.461 271.174 C 76.386 269.734,76.325 271.016,76.326 274.023 M283.388 299.023 C 283.388 313.848,283.437 319.855,283.496 312.374 C 283.555 304.892,283.555 292.763,283.496 285.421 C 283.436 278.078,283.388 284.199,283.388 299.023 M141.156 286.719 C 141.156 288.760,141.222 289.595,141.303 288.574 C 141.383 287.554,141.383 285.884,141.303 284.863 C 141.222 283.843,141.156 284.678,141.156 286.719 M76.340 300.781 C 76.340 305.830,76.396 307.896,76.464 305.371 C 76.532 302.847,76.532 298.716,76.464 296.191 C 76.396 293.667,76.340 295.732,76.340 300.781 M236.426 317.847 C 236.802 317.946,237.417 317.946,237.793 317.847 C 238.169 317.749,237.861 317.669,237.109 317.669 C 236.357 317.669,236.050 317.749,236.426 317.847 M101.263 325.391 C 101.263 326.143,101.343 326.450,101.441 326.074 C 101.539 325.698,101.539 325.083,101.441 324.707 C 101.343 324.331,101.263 324.639,101.263 325.391 M274.121 328.411 C 275.034 328.493,276.528 328.493,277.441 328.411 C 278.354 328.329,277.607 328.261,275.781 328.261 C 273.955 328.261,273.208 328.329,274.121 328.411 " stroke="none" fill="#7c8491" fill-rule="evenodd"></path></g></svg>